{"title":"The Conjuring 2013 R6 Webrip Ac3 XVID - SSRG","uid":8774569,"size":734886933,"categoryP":"video","categoryS":"hd___movies","magnet":"?xt=urn:btih:4cd31c1c3cd230f1263927f5a73be0bbd601cfec&amp;dn=The+Conjuring+2013+R6+Webrip+Ac3+XVID+-+SSRG&amp;tr=udp%3A%2F%2Ftracker.openbittorrent.com%3A80&amp;tr=udp%3A%2F%2Fopen.demonii.com%3A1337&amp;tr=udp%3A%2F%2Ftracker.coppersurfer.tk%3A6969&amp;tr=udp%3A%2F%2Fexodus.desync.com%3A6969","seeders":1,"leechers":0,"uploader":"AliBaloch","files":-1,"time":1375521031,"description":"General\nUnique ID                                : 235093823042196675174437891116619052163 (0xB0DD6C60E935568280B0F4CF6238B483)\nComplete name                            : C:UsersUserVideosThe Conjuring 2013 R6 Webrip Ac3 XVID - SSRGThe Conjuring 2013 R6 Webrip Ac3 XVID - SSRG.mkv\nFormat                                   : Matroska\nFormat version                           : Version 4 / Version 2\nFile size                                : 688 MiB\nDuration                                 : 1h 47mn\nOverall bit rate                         : 897 Kbps\nMovie name                               : The Conjuring 2013 R6 Webrip Ac3 XVID - SSRG  - Encoder Worldwide7477\nEncoded date                             : UTC 2013-08-03 05:43:37\nWriting application                      : mkvmerge v6.3.0 ('You can't stop me!') built on Jun 27 2013 22:06:07\nWriting library                          : libebml v1.3.0 + libmatroska v1.4.0\n\nVideo\nID                                       : 1\nFormat                                   : MPEG-4 Visual\nFormat profile                           : Advanced Simple@L5\nFormat settings, BVOP                    : Yes\nFormat settings, QPel                    : No\nFormat settings, GMC                     : No warppoints\nFormat settings, Matrix                  : Default (H.263)\nCodec ID                                 : V_MS/VFW/FOURCC / XVID\nCodec ID/Hint                            : XviD\nDuration                                 : 1h 47mn\nBit rate                                 : 495 Kbps\nWidth                                    : 640 pixels\nHeight                                   : 288 pixels\nDisplay aspect ratio                     : 2.222\nFrame rate mode                          : Constant\nFrame rate                               : 23.976 fps\nColor space                              : YUV\nChroma subsampling                       : 4:2:0\nBit depth                                : 8 bits\nScan type                                : Progressive\nCompression mode                         : Lossy\nBits/(Pixel*Frame)                       : 0.112\nStream size                              : 380 MiB (55%)\nTitle                                    : The Conjuring 2013 R6 Webrip Ac3 XVID - SSRG\nWriting library                          : XviD 64\nLanguage                                 : English\nDefault                                  : Yes\nForced                                   : No\n\nAudio\nID                                       : 2\nFormat                                   : AC-3\nFormat/Info                              : Audio Coding 3\nMode extension                           : CM (complete main)\nFormat settings, Endianness              : Big\nCodec ID                                 : A_AC3\nDuration                                 : 1h 47mn\nBit rate mode                            : Constant\nBit rate                                 : 384 Kbps\nChannel(s)                               : 2 channels\nChannel positions                        : Front: L R\nSampling rate                            : 44.1 KHz\nBit depth                                : 16 bits\nCompression mode                         : Lossy\nStream size                              : 295 MiB (43%)\nTitle                                    : Worldwide7477\nDefault                                  : Yes\nForced                                   : No\n &lt;a href=&quot;\nhttp://img27.imageshack.us/img27/5234/9qxa.png&quot; rel=&quot;nofollow&quot; target=&quot;_NEW&quot;&gt;\nhttp://img27.imageshack.us/img27/5234/9qxa.png&lt;/a&gt;\n &lt;a href=&quot;\nhttp://img405.imageshack.us/img405/3227/mldm.png&quot; rel=&quot;nofollow&quot; target=&quot;_NEW&quot;&gt;\nhttp://img405.imageshack.us/img405/3227/mldm.png&lt;/a&gt;\n &lt;a href=&quot;\nhttp://img826.imageshack.us/img826/5233/hete.png&quot; rel=&quot;nofollow&quot; target=&quot;_NEW&quot;&gt;\nhttp://img826.imageshack.us/img826/5233/hete.png&lt;/a&gt;\n &lt;a href=&quot;\nhttp://img132.imageshack.us/img132/249/7jac.png&quot; rel=&quot;nofollow&quot; target=&quot;_NEW&quot;&gt;\nhttp://img132.imageshack.us/img132/249/7jac.png&lt;/a&gt;\n &lt;a href=&quot;\nhttp://img6.imageshack.us/img6/9600/46k3.png&quot; rel=&quot;nofollow&quot; target=&quot;_NEW&quot;&gt;\nhttp://img6.imageshack.us/img6/9600/46k3.png&lt;/a&gt;","torrent":{"xt":"urn:btih:4cd31c1c3cd230f1263927f5a73be0bbd601cfec","amp;dn":"The+Conjuring+2013+R6+Webrip+Ac3+XVID+-+SSRG","amp;tr":["udp%3A%2F%2Ftracker.openbittorrent.com%3A80","udp%3A%2F%2Fopen.demonii.com%3A1337","udp%3A%2F%2Ftracker.coppersurfer.tk%3A6969","udp%3A%2F%2Fexodus.desync.com%3A6969"],"infoHash":"4cd31c1c3cd230f1263927f5a73be0bbd601cfec","infoHashBuffer":{"type":"Buffer","data":[76,211,28,28,60,210,48,241,38,57,39,245,167,59,224,187,214,1,207,236]},"announce":[],"urlList":[]}}